<svg width="73" height="88" viewBox="0 0 73 88" fill="none" xmlns="http://www.w3.org/2000/svg">
<path d="M27.9051 16.989L30.4129 23.9578C33.202 31.6922 39.2918 37.7818 47.0259 40.5708L53.9947 43.0786C54.6236 43.3051 54.6236 44.1958 53.9947 44.4224L47.0259 46.9302C39.2915 49.7193 33.2019 55.8091 30.4129 63.5432L27.9051 70.512C27.6785 71.1409 26.7879 71.1409 26.5613 70.512L24.0535 63.5432C21.2644 55.8088 15.1746 49.7192 7.44048 46.9302L0.471682 44.4224C-0.157228 44.1958 -0.157228 43.3052 0.471682 43.0786L7.44048 40.5708C15.1749 37.7817 21.2645 31.6919 24.0535 23.9578L26.5613 16.989C26.7878 16.3562 27.6785 16.3562 27.9051 16.989Z" fill="white"/>
<path d="M59.2761 0.243165L60.5495 3.77046C61.9636 7.68456 65.0456 10.7705 68.9636 12.1846L72.4909 13.458C72.8112 13.5752 72.8112 14.0244 72.4909 14.1377L68.9636 15.4111C65.0495 16.8252 61.9636 19.9072 60.5495 23.8252L59.2761 27.3525C59.1589 27.6728 58.7097 27.6728 58.5964 27.3525L57.323 23.8252C55.9089 19.9111 52.8269 16.8252 48.9089 15.4111L45.3816 14.1377C45.0613 14.0205 45.0613 13.5712 45.3816 13.458L48.9089 12.1846C52.823 10.7705 55.9089 7.68846 57.323 3.77046L58.5964 0.243165C58.7097 -0.081055 59.1628 -0.081055 59.2761 0.243165Z" fill="white"/>
<path d="M59.2761 60.157L60.5495 63.6843C61.9636 67.5984 65.0456 70.6843 68.9636 72.0984L72.4909 73.3718C72.8112 73.489 72.8112 73.9382 72.4909 74.0515L68.9636 75.3249C65.0495 76.739 61.9636 79.821 60.5495 83.739L59.2761 87.2663C59.1589 87.5866 58.7097 87.5866 58.5964 87.2663L57.323 83.739C55.9089 79.8249 52.8269 76.739 48.9089 75.3249L45.3816 74.0515C45.0613 73.9343 45.0613 73.485 45.3816 73.3718L48.9089 72.0984C52.823 70.6843 55.9089 67.6023 57.323 63.6843L58.5964 60.157C58.7097 59.8367 59.1628 59.8367 59.2761 60.157Z" fill="white"/>
</svg>
