<svg version="1.2" xmlns="http://www.w3.org/2000/svg" viewBox="0 0 1554 352" width="1554" height="352">
	<title>carvana logo-svg</title>
	<style>
		.s0 { fill: #183558 } 
		.s1 { fill: #00acd8 } 
		.s2 { fill: #fbb649 } 
		.s3 { fill: #ffffff } 
	</style>
	<g id="Layer">
		<path id="Layer" class="s0" d="m1013.4 102.5h33.8l-60.9 148h-26.2l-59.2-143.3-1.9-4.7h34.6l40 101.5zm320.1-0.4h31.3v146.9h-25.7l-72.1-93.2v93.2h-31.3v-146.7h27.9l69.9 90.3zm-192.7-0.7l64.2 147.1h-33.5l-7.8-18.7-8.2-19.6h-23.2l11.8-27.2-17.3-41.7v0.7l-18.9 45-26.8 62.4h-32.3l64.7-148zm413.2 148h-33.8l-7.8-18.6-8.2-19.7h-23.4l11.9-27.4-17.4-41.6-0.5 1-18.7 43.9-26.8 62.4h-32.3l64.6-148h27.4z"/>
		<path id="Layer" fill-rule="evenodd" class="s0" d="m536.5 217.1l2.5-2.4 10.1 9-2.4 2.4q-1.3 1.3-2.7 2.7-1.3 1.3-2.7 2.5-1.4 1.3-2.8 2.5-1.4 1.3-2.9 2.4-1.5 1.2-3.1 2.3-1.6 1.1-3.2 2.1-1.7 1-3.4 1.9-1.6 0.9-3.4 1.7-1.8 0.9-3.7 1.6-1.9 0.8-3.9 1.5-1.9 0.6-3.9 1.2-1.9 0.6-3.9 1-2.2 0.5-4.4 0.9-2.3 0.4-4.5 0.7-2.3 0.2-4.5 0.3-2.3 0.2-4.6 0.1-3.7 0.1-7.4-0.3-3.7-0.4-7.3-1.1-3.6-0.8-7.2-1.9-3.5-1.1-6.9-2.6-3.2-1.5-6.3-3.3-3-1.7-5.9-3.8-2.9-2-5.5-4.3-2.7-2.3-5.1-4.9-2.5-2.6-4.7-5.5-2.1-2.8-4-5.9-1.9-3.1-3.5-6.3-1.5-3.2-2.8-6.6-1.3-3.5-2.3-7.1-1-3.7-1.7-7.4-0.7-3.7-1-7.4-0.4-3.8-0.3-7.5-0.1-3.7 0.3-7.5 0.3-3.7 0.9-7.3 0.7-3.7 1.7-7.3 1-3.6 2.3-7 1.3-3.4 2.9-6.6 1.6-3.2 3.5-6.2 1.9-3.1 4-5.9 2.2-2.9 4.7-5.5 2.3-2.6 5-4.9 2.6-2.4 5.4-4.5 2.9-2.1 5.9-3.9 3.1-1.7 6.3-3.2 3.4-1.6 7-2.8 3.6-1.1 7.3-1.9 3.7-0.8 7.4-1.2 3.8-0.3 7.5-0.3 2.3 0 4.6 0.1 2.3 0.1 4.6 0.3 2.3 0.2 4.6 0.6 2.3 0.4 4.5 0.8 1.9 0.4 3.8 0.9 1.9 0.5 3.8 1 1.9 0.6 3.7 1.3 1.8 0.7 3.6 1.5 1.6 0.7 3.2 1.6 1.6 0.8 3.2 1.7 1.5 0.9 3 1.9 1.5 1 2.9 2.1c3.7 2.7 7.3 5.8 10.9 9l2.5 2.4-9.5 10.1-2.6-2.3q-1.1-1.1-2.2-2-1.1-1-2.2-2-1.1-1-2.3-1.9-1.1-0.9-2.3-1.8-1.2-1-2.4-1.9-1.2-0.8-2.5-1.6-1.3-0.8-2.6-1.6-1.3-0.7-2.7-1.3-1.4-0.7-3-1.4-1.5-0.6-3-1.1-1.6-0.6-3.2-1.1-1.5-0.4-3.1-0.8-1.9-0.4-3.8-0.7-1.9-0.3-3.8-0.5-1.9-0.2-3.8-0.3-1.9-0.1-3.8-0.1-3 0-6 0.3-3 0.3-5.9 0.9-3 0.6-5.8 1.6-2.9 0.9-5.6 2.2-2.6 1.1-5.1 2.6-2.5 1.4-4.9 3.1-2.3 1.7-4.5 3.6-2.1 1.9-4.1 4-2 2.3-3.8 4.6-1.8 2.4-3.3 5-1.6 2.5-2.9 5.2-1.3 2.7-2.4 5.5-1.1 2.9-1.9 5.9-0.9 3-1.4 6.1-0.6 3.1-0.9 6.2-0.3 3.1-0.2 6.2-0.1 3.1 0.2 6.2 0.3 3.1 0.9 6.2 0.5 3.1 1.4 6.1 0.8 3 1.9 5.9 1.1 2.8 2.4 5.5 1.3 2.7 2.9 5.3 1.6 2.5 3.4 4.9 1.8 2.4 3.8 4.6 2 2.1 4.1 4 2.2 1.8 4.5 3.5 2.3 1.6 4.8 3 2.5 1.4 5.1 2.6 2.7 1.3 5.6 2.3 2.9 1 5.9 1.6 2.9 0.7 6 1 3 0.4 6 0.4 3.5 0 7-0.3 3.4-0.3 6.8-1.1 3.4-0.8 6.7-2 3.2-1.2 6.3-2.7 2.9-1.5 5.5-3.3 2.7-1.7 5.3-3.6 2.5-2 4.9-4.1 2.4-2.1 4.6-4.4m119.2-115.7l69.4 147.7h-13.8l-17.9-38h-17.4l8.6-18.4-34.2-72.2-60.9 128.6h-14.2l69.7-147.7zm223 147.7h-17.2l-45.7-59.8h-44.5v59.8h-13.5v-147h60.9q3.1 0 6.2 0.2 3.1 0.2 6.2 0.7 3.1 0.4 6.2 1.1 3 0.7 6 1.7 2.6 0.8 5.1 2 2.4 1.1 4.7 2.5 2.4 1.4 4.5 3.1 2.1 1.7 4.1 3.5 1.3 1.4 2.5 2.9 1.2 1.5 2.2 3.1 1 1.6 1.9 3.3 0.9 1.7 1.6 3.4 0.7 1.9 1.3 3.8 0.6 2 0.9 3.9 0.4 2 0.6 4 0.2 2 0.2 4 0 2.3-0.2 4.5-0.2 2.2-0.7 4.4-0.4 2.1-1.1 4.2-0.7 2.2-1.6 4.2-0.9 1.9-2 3.7-1.1 1.8-2.3 3.5-1.3 1.6-2.8 3.1-1.4 1.5-3 2.9-1.7 1.4-3.5 2.6-1.8 1.3-3.7 2.4-1.9 1-3.9 2-2 0.9-4.1 1.6-1.5 0.6-3 1.1-1.6 0.4-3.2 0.9-1.6 0.4-3.2 0.7-1.5 0.3-3.2 0.5zm-107.4-72.9h45.9q2.3 0 4.7-0.1 2.3-0.1 4.6-0.4 2.2-0.4 4.5-0.8 2.3-0.5 4.5-1.1 1.8-0.5 3.5-1.2 1.7-0.6 3.3-1.4 1.7-0.8 3.3-1.8 1.5-0.9 3-2 1.2-1 2.4-2 1.1-1.1 2.1-2.3 1-1.2 1.9-2.5 0.8-1.3 1.5-2.7 0.7-1.5 1.2-3 0.5-1.4 0.8-3 0.3-1.5 0.5-3.1 0.2-1.5 0.2-3.1 0.1-3.2-0.5-6.3-0.6-3.1-1.9-6-1.3-2.8-3.3-5.3-2-2.5-4.5-4.4-3.3-2.3-7-3.9-3.7-1.7-7.5-2.8-3.9-1-7.9-1.4-4-0.4-8-0.1h-47.3z"/>
		<path id="Layer" class="s1" d="m352.5 175.7c0 71-42.8 135.1-108.5 162.3-65.7 27.2-141.3 12.1-191.6-38.1-50.3-50.2-65.3-125.8-38.1-191.5 27.2-65.6 91.3-108.4 162.4-108.4 23.1 0 46 4.5 67.3 13.3 21.3 8.9 40.7 21.8 57 38.1 16.4 16.3 29.3 35.7 38.2 57 8.8 21.4 13.3 44.2 13.3 67.3z"/>
		<path id="Layer" fill-rule="evenodd" class="s2" d="m177.6 107.6q-3.8 0-7.6-0.1-3.8-0.1-7.7-0.4-3.8-0.2-7.6-0.6-3.8-0.5-7.5-1-2.4-0.2-4.7-0.6-2.4-0.5-4.6-1.2-2.3-0.8-4.4-1.8-2.2-1-4.2-2.3-0.4-0.4-0.8-0.9-0.3-0.5-0.6-1-0.3-0.6-0.4-1.2-0.2-0.6-0.2-1.2 0-0.6 0.2-1.1 0.1-0.6 0.4-1.2 0.2-0.5 0.6-1 0.4-0.5 0.8-0.9 0.4-0.4 0.8-0.7 0.5-0.4 0.9-0.7 0.5-0.3 1-0.6 0.5-0.2 1-0.5 1.3-0.5 2.6-0.9 1.3-0.5 2.7-0.9 1.3-0.3 2.7-0.7 1.3-0.3 2.7-0.5 4.2-0.7 8.4-1.2 4.1-0.6 8.4-0.9 4.2-0.3 8.4-0.5 4.2-0.1 8.4 0 3.8-0.1 7.6 0 3.9 0.1 7.7 0.4 3.8 0.2 7.6 0.6 3.8 0.4 7.6 1 2.3 0.2 4.6 0.7 2.4 0.5 4.6 1.3 2.2 0.8 4.4 1.9 2.1 1 4 2.4 0.5 0.4 0.9 0.9 0.4 0.4 0.6 1 0.3 0.5 0.5 1.1 0.1 0.6 0.2 1.2-0.1 0.7-0.2 1.3-0.2 0.5-0.5 1.1-0.2 0.5-0.6 1-0.4 0.5-0.9 0.9-0.4 0.3-0.8 0.7-0.4 0.3-0.9 0.6-0.4 0.2-0.9 0.5-0.4 0.2-0.9 0.4-1.3 0.6-2.6 1.1-1.4 0.4-2.7 0.8-1.4 0.4-2.7 0.7-1.4 0.3-2.8 0.6-4.1 0.7-8.3 1.2-4.2 0.5-8.4 0.8-4.2 0.4-8.4 0.5-4.2 0.2-8.4 0.1m0-18.1q-3.7-0.1-7.3 0.1-3.7 0.1-7.3 0.3-3.7 0.3-7.3 0.7-3.7 0.4-7.3 0.9-1.7 0.2-3.4 0.5-1.7 0.3-3.3 0.8-1.6 0.4-3.2 1-1.7 0.6-3.2 1.2h0.8q1.1 0.5 2.3 0.9 1.1 0.4 2.2 0.7 1.2 0.3 2.4 0.6 1.2 0.3 2.3 0.5 4 0.6 8.1 1.1 4 0.5 8 0.9 4.1 0.3 8.1 0.4 4.1 0.2 8.1 0.1 3.7 0.1 7.3-0.1 3.7-0.1 7.3-0.3 3.7-0.3 7.3-0.7 3.6-0.4 7.2-0.9 1.7-0.2 3.4-0.5 1.7-0.3 3.3-0.8 1.7-0.4 3.3-1 1.6-0.5 3.1-1.2h-0.8q-1.1-0.4-2.2-0.8-1.1-0.4-2.3-0.7-1.1-0.4-2.3-0.6-1.1-0.3-2.3-0.5-4-0.7-8-1.2-4-0.5-8.1-0.8-4-0.3-8.1-0.4c-2.7-0.1-5.4-0.2-8.1-0.2z"/>
		<path id="Layer" fill-rule="evenodd" class="s3" d="m255.4 181q0.8 0.9 1.4 1.9 0.7 0.9 1.3 2 0.6 1 1.1 2 0.5 1.1 0.8 2.2 0.3 1.1 0.5 2.2 0.2 1.1 0.2 2.3 0.1 1.1 0 2.3c-0.2 4.9-0.7 26.6-0.7 26.6v27.3q0.1 0.5 0 1-0.2 0.5-0.5 0.9-0.4 0.4-0.8 0.7-0.5 0.2-1 0.3h-21.5q-0.5-0.1-1-0.3-0.5-0.3-0.8-0.7-0.3-0.4-0.5-0.9-0.1-0.5-0.1-1v-3.3h-114.4v3.3q0 0.5-0.1 1-0.2 0.5-0.5 0.9-0.3 0.4-0.8 0.7-0.5 0.2-1 0.3h-21.6q-0.5-0.1-1-0.3-0.4-0.3-0.7-0.7-0.3-0.4-0.5-0.9-0.1-0.5 0-1v-27.3c0 0-0.7-21.7-0.7-26.6q-0.1-1.2 0-2.3 0.1-1.1 0.2-2.3 0.2-1.1 0.5-2.2 0.3-1.1 0.7-2.2 0.5-1 1.2-2 0.6-1 1.2-2 0.7-1 1.4-1.9 0.8-1 1.6-1.9 1.4-1.8 2.7-3.6 1.3-1.9 2.6-3.7 1.3-1.9 2.5-3.9 1.2-1.9 2.3-3.9h-0.8c0 0-18.8-1-15.4-7.5 0 0 3.6-7.8 17.4-7.8h1.9c0.7 0 1.9 0.3 1.9 5.1q1.6-3.8 3.6-7.3 2-3.5 4.5-6.8 2.4-3.2 5.3-6.1 2.8-2.9 6-5.5 0.7-0.4 1.5-0.8 0.8-0.3 1.6-0.6 0.8-0.3 1.7-0.5 0.8-0.2 1.7-0.3c3.9-1 33.9-1 36.3-1 2.4 0 32.4 0.3 36.3 1q0.9 0.1 1.7 0.3 0.9 0.2 1.7 0.5 0.8 0.3 1.6 0.6 0.8 0.4 1.5 0.8 3.2 2.6 6 5.5 2.9 2.9 5.3 6.1 2.5 3.3 4.5 6.8 2 3.5 3.6 7.3c0.3-5.1 1.2-5.1 1.8-5.1h2c13.8 0 17.4 7.8 17.4 7.8 3.4 6.5-15.4 7.5-15.4 7.5h-0.8q1.1 2 2.3 3.9 1.2 2 2.5 3.9 1.3 1.8 2.6 3.7 1.3 1.8 2.7 3.6 0.8 0.9 1.5 1.9zm-131.7-19.8h106.6c0 0 2.5 0 1.4-3.1q-1.5-3.4-3.2-6.8-1.7-3.4-3.6-6.7-1.9-3.3-3.9-6.5-2-3.2-4.2-6.2c0 0-12.2-0.8-28.5-0.8l0.5 1.3v2.8q0 0.4-0.2 0.8-0.1 0.3-0.4 0.6-0.3 0.3-0.7 0.4-0.4 0.2-0.7 0.1h-19q-0.4 0-0.8-0.1-0.3-0.2-0.6-0.4-0.3-0.3-0.4-0.7-0.2-0.3-0.2-0.7v-4.1c-16.3 0.1-27.2-1.3-28.6 0.8q-2.1 3.1-4.1 6.3-1.9 3.2-3.8 6.5-1.8 3.3-3.4 6.7-1.6 3.4-3.1 6.8c-1.6 3.1 0.9 3 0.9 3zm-15.1 42.8q3.1 0.6 6.1 1 3.1 0.5 6.2 0.9 3.1 0.3 6.2 0.6c0 0-0.9-12.5-8.1-16.1q-1.4-1-2.9-1.8-1.4-0.9-3-1.6-1.5-0.7-3.1-1.4-1.6-0.6-3.2-1.1-1.2-0.2-2.3 0-1.2 0.1-2.2 0.7-1 0.5-1.8 1.3-0.8 0.9-1.2 2-0.5 1.2-0.9 2.6-0.3 1.3-0.4 2.7-0.2 1.4-0.2 2.8 0 1.3 0.1 2.7c0 0 0.4 2.5 4.6 3.6q3 0.6 6.1 1.1zm110.2 3.6c0 0 3.6-7.7-1.3-8.3-0.7 0-16.5-0.6-40.1-0.6-23.5 0-39.9 0.6-40.6 0.6-5.5 0.2-1.9 7.9-1.9 7.9 12.7 1.1 30.9 1.1 42 1.1 11.1 0 29.3-0.1 42-1.1zm37.1-8.2q0-0.1 0-0.1zm-0.1 0.2q0.2-1.3 0.2-2.7 0-1.4-0.2-2.9-0.1-1.4-0.4-2.8-0.4-1.4-0.8-2.7-0.5-1.1-1.3-1.9-0.8-0.9-1.9-1.4-1-0.5-2.1-0.7-1.2-0.2-2.3 0-1.7 0.5-3.3 1.2-1.5 0.6-3.1 1.3-1.5 0.8-3 1.6-1.5 0.9-2.9 1.8c-7 3.7-10.1 16.3-8 16.1q3.1-0.2 6.2-0.6 3.1-0.4 6.1-0.8 3.1-0.5 6.2-1 3.1-0.6 6.1-1.2c3.3-0.8 4.2-2.6 4.5-3.3zm0 0.1l0.1-0.3q0 0.1-0.1 0.2 0 0.1 0 0.1z"/>
	</g>
</svg>