<svg width="96" height="80" fill="none" xmlns="http://www.w3.org/2000/svg"><path d="M34.9 0h-6.303v36.051H34.9V0zm15.935 56.156c6.863 0 12.426-5.57 12.426-12.438V32.2h-6.303v11.517c0 3.379-2.747 6.128-6.123 6.128-3.376 0-6.123-2.75-6.123-6.128V32.2H38.41v11.517c0 6.869 5.563 12.438 12.426 12.438zM12.98 11.596c-5.791 0-10.657 3.964-12.036 9.33 0 0-.944 3.107-.944 9.87V49.33h6.265V34.497a12.355 12.355 0 006.715 1.974c6.863 0 12.426-5.568 12.426-12.438 0-6.869-5.563-12.438-12.426-12.438zm0 18.566c-3.376 0-6.123-2.75-6.123-6.129 0-3.379 2.747-6.128 6.123-6.128 3.376 0 6.122 2.75 6.122 6.128 0 3.38-2.746 6.128-6.122 6.128zm75.11-9.236c-1.38-5.365-6.245-9.33-12.036-9.33-6.863 0-12.427 5.568-12.427 12.437 0 6.87 5.564 12.438 12.427 12.438 2.474 0 4.778-.727 6.715-1.974v1.666c0 20.713-16.837 37.565-37.532 37.565-9.836 0-16.64-3.249-16.64-3.249v6.272S35.401 80 45.237 80c11.515 0 22.4-4.465 30.653-12.574 8.24-8.097 12.916-18.895 13.144-30.39v-6.242c0-6.762-.945-9.869-.945-9.869zm-12.036 9.236c-3.376 0-6.123-2.75-6.123-6.129 0-3.379 2.747-6.128 6.123-6.128 3.376 0 6.122 2.75 6.122 6.128 0 3.38-2.746 6.128-6.122 6.128zm13.743-14.317h-.763V12.87h-.98v-.637h2.724v.637h-.981v2.975zm3.063 0l-.87-2.833h-.02a202.919 202.919 0 00.036.736c.007.154.01.293.01.418v1.68h-.682v-3.613h1.04l.855 2.762h.015l.905-2.762h1.041v3.612h-.712v-1.71c0-.114.002-.246.007-.394a110.398 110.398 0 01.028-.724h-.02l-.93 2.828h-.703z" fill="#36A857"/></svg>