<svg width="81" height="88" viewBox="0 0 81 88" fill="none" xmlns="http://www.w3.org/2000/svg">
<path d="M80.093 85.6953C79.6633 84.1406 79.1008 82.6211 78.4133 81.1641C77.7063 79.668 76.8703 78.2344 75.9133 76.8829C75.4251 76.1915 74.9055 75.5235 74.3586 74.879C73.8039 74.2228 73.218 73.5899 72.6086 72.9806C71.3586 71.7345 69.9992 70.5939 68.5617 69.5665C67.0695 68.5001 65.4953 67.5509 63.8625 66.7188C62.1711 65.8556 60.4172 65.1133 58.6203 64.4883C56.5617 63.7696 54.4562 63.1953 52.3195 62.7578V58.3008L52.3234 58.2969C52.9289 57.8126 53.5109 57.3008 54.0656 56.7617C54.6984 56.1485 55.2922 55.4961 55.8508 54.8125C56.4094 54.125 56.9289 53.4063 57.4055 52.6602C57.8821 51.9102 58.3118 51.129 58.6907 50.3243C58.7728 50.1486 58.8548 49.9728 58.929 49.7931C58.9915 49.6525 59.0501 49.5118 59.1087 49.3673C59.2259 49.0861 59.3353 48.8048 59.4407 48.5157C59.6439 47.9572 59.8275 47.3868 59.9915 46.8126C60.1165 46.3751 60.2259 45.9376 60.3275 45.4923C60.5228 45.4923 60.7181 45.4923 60.9134 45.4884C61.0267 45.4845 61.14 45.4806 61.2532 45.4728C61.4759 45.4572 61.6985 45.4338 61.9173 45.3947C62.4603 45.3048 62.9954 45.1486 63.4993 44.9259C63.9954 44.7111 64.4641 44.4338 64.8938 44.1056C65.3157 43.7814 65.6985 43.4103 66.0383 43.0001C66.3742 42.5939 66.6633 42.1486 66.9055 41.6798C67.1477 41.2072 67.343 40.715 67.4875 40.2032C67.636 39.6837 67.7336 39.1524 67.7844 38.6173C67.8117 38.3439 67.8235 38.0705 67.8235 37.7931C67.8235 37.6525 67.8235 37.5158 67.8156 37.3751C67.8117 37.2462 67.8039 37.1212 67.7922 36.9923C67.757 36.5431 67.675 36.0978 67.55 35.6642C67.4211 35.2267 67.2492 34.801 67.0305 34.4025C66.8078 34.0002 66.5383 33.6213 66.2297 33.2775C65.9797 33.0002 65.7024 32.7463 65.4016 32.5197C65.6594 31.8596 65.8742 31.172 66.0656 30.4806C66.4055 29.2384 66.6633 27.9728 66.8078 26.6915C66.9524 25.4142 66.9914 24.1212 66.8938 22.8399C66.7961 21.5352 66.5657 20.2422 66.1907 18.9883C65.8039 17.6875 65.2649 16.4336 64.5929 15.2539C64.3078 14.75 63.9953 14.2617 63.6594 13.7891C63.3 13.2852 62.9094 12.8047 62.4875 12.3516C62.0422 11.8751 61.5617 11.4297 61.0383 11.0391C60.7648 10.8321 60.4758 10.6407 60.1789 10.4688C59.8664 10.2891 59.5422 10.129 59.2062 9.99615C58.9914 9.91021 58.7765 9.82037 58.5656 9.72271C58.3937 9.64459 58.2258 9.56255 58.0617 9.47271C57.9328 9.4024 57.8039 9.32427 57.6867 9.24224C57.589 9.17193 57.4914 9.10162 57.4054 9.01958C57.3234 8.94536 57.2453 8.86724 57.1711 8.7813C57.0929 8.68755 57.0187 8.58989 56.9523 8.48442C56.8664 8.35161 56.7882 8.21489 56.7218 8.07817C56.632 7.89458 56.55 7.70708 56.4758 7.51567C56.2492 6.92583 55.9562 6.35947 55.6125 5.82817C55.2804 5.31645 54.9015 4.83989 54.4797 4.40237C54.0734 3.97659 53.632 3.58596 53.1633 3.23437C52.7062 2.89062 52.2219 2.58203 51.7258 2.30468C50.757 1.76562 49.7219 1.35156 48.6594 1.04298C48.5305 1.00392 48.3977 0.968762 48.2688 0.933601C48.2023 0.917976 48.1359 0.898444 48.0734 0.88282C47.8469 0.824226 47.6242 0.77344 47.3977 0.72266C46.3469 0.48438 45.2805 0.30469 44.2102 0.17969C43.1555 0.0585999 42.0969 0 41.0344 0C39.9836 0 38.9328 0.0624999 37.886 0.18359C36.843 0.30468 35.804 0.48828 34.7805 0.73437C33.7493 0.98046 32.7297 1.28515 31.7336 1.64453C30.718 2.01172 29.7219 2.43359 28.7531 2.90623C28.5499 3.00389 28.3507 3.10545 28.1476 3.21092C28.1163 3.22655 28.0851 3.24217 28.0538 3.2617C27.9913 3.29295 27.9288 3.32811 27.8703 3.36326C27.632 3.50388 27.3976 3.65623 27.1749 3.82029C26.9562 3.98435 26.7453 4.15623 26.5421 4.33982C26.132 4.71091 25.7609 5.12107 25.4366 5.56642C25.2687 5.79689 25.1124 6.03908 24.9718 6.28517C24.8234 6.54689 24.6945 6.82033 24.5851 7.09767C24.5655 7.14845 24.5421 7.20314 24.5148 7.25392C24.503 7.27736 24.4874 7.3008 24.4718 7.32423C24.4679 7.33205 24.4601 7.33986 24.4523 7.34767C24.4444 7.35548 24.4366 7.35939 24.4288 7.3633C24.4054 7.37892 24.3819 7.39064 24.3546 7.40236C24.3077 7.4258 24.257 7.44533 24.2062 7.46486C24.128 7.4922 24.0499 7.51955 23.9718 7.54298C22.8429 7.87501 21.7491 8.32033 20.7257 8.89849C19.7413 9.45318 18.8234 10.129 18.0069 10.9102C17.6045 11.293 17.2256 11.7071 16.878 12.1368C16.5303 12.5665 16.2061 13.0196 15.9131 13.4923C15.6202 13.9649 15.3506 14.4532 15.1124 14.9571C14.8741 15.4649 14.6592 15.9844 14.4756 16.5157C14.2881 17.0547 14.128 17.6016 13.9952 18.1524C13.878 18.6446 13.7764 19.1407 13.6983 19.6407C13.5499 20.5899 13.4717 21.5509 13.4561 22.5079C13.4405 23.5704 13.5069 24.629 13.628 25.6837C13.7335 26.5821 13.8819 27.4728 14.0616 28.3595C14.2374 29.2228 14.4444 30.0822 14.667 30.9376C14.7881 31.3985 14.9131 31.8556 15.0499 32.3087C15.0225 32.3282 14.9913 32.3477 14.9639 32.3673C14.5811 32.629 14.2295 32.9376 13.9209 33.2813C13.6123 33.6251 13.3428 34.004 13.1201 34.4063C12.9014 34.8048 12.7256 35.2306 12.6006 35.668C12.4756 36.1016 12.3975 36.5469 12.3584 36.9961C12.3467 37.1211 12.3389 37.25 12.335 37.3789C12.3311 37.5196 12.3272 37.6563 12.3272 37.7969C12.3311 38.0704 12.3428 38.3477 12.3662 38.6211C12.417 39.1563 12.5147 39.6914 12.6631 40.207C12.8076 40.7148 13.003 41.2109 13.2451 41.6836C13.4873 42.1524 13.7764 42.5977 14.1123 43.0039C14.4483 43.4141 14.8311 43.7891 15.2568 44.1094C15.6865 44.4376 16.1553 44.7149 16.6513 44.9297C17.1552 45.1485 17.6904 45.3087 18.2333 45.3985C18.4521 45.4337 18.6747 45.461 18.8935 45.4766C19.0068 45.4844 19.1201 45.4883 19.2333 45.4922C19.4286 45.4962 19.624 45.5001 19.8193 45.4962C19.9208 45.9376 20.0302 46.379 20.1552 46.8165C20.3193 47.3907 20.499 47.9571 20.706 48.5196C20.9287 49.1328 21.1787 49.7344 21.456 50.3243C21.8349 51.1289 22.2646 51.9102 22.7412 52.6602C23.2138 53.4062 23.7373 54.125 24.2959 54.8125C24.8545 55.496 25.4482 56.1445 26.0811 56.7617C26.6358 57.3046 27.2217 57.8164 27.8272 58.3008C27.8272 59.7852 27.8272 61.2735 27.8233 62.7578C25.6905 63.1992 23.5811 63.7695 21.5225 64.4883C19.7295 65.1172 17.9756 65.8554 16.2842 66.7188C14.6514 67.5508 13.0733 68.5 11.585 69.5665C10.1475 70.5938 8.78809 71.7345 7.53809 72.9806C6.92871 73.586 6.34278 74.2189 5.78808 74.879C5.2412 75.5235 4.72168 76.1954 4.23338 76.8829C3.28026 78.2345 2.44038 79.6681 1.73338 81.1641C1.04588 82.6211 0.483384 84.1407 0.0536845 85.6953C-0.161155 86.4648 0.288065 87.2656 1.05759 87.4765C1.82711 87.6913 2.62788 87.2382 2.83878 86.4648C5.55358 76.6523 13.4328 70.3747 22.4948 67.2067C25.3503 74.4098 32.3229 79.1288 40.0688 79.0938C47.8149 79.125 54.7918 74.4062 57.6428 67.2067C66.7053 70.3747 74.5808 76.6521 77.2988 86.4648C77.5097 87.2382 78.3066 87.6914 79.08 87.4765C79.8573 87.2655 80.3105 86.4648 80.0917 85.6953L80.093 85.6953ZM64.917 37.3243C65.0928 40.1407 63.5068 42.3321 61.2334 42.5782C61.1006 42.5939 60.9639 42.6017 60.8233 42.6056C60.878 42.1681 60.9248 41.7306 60.9678 41.2931C61.0655 40.2072 61.124 39.1212 61.1592 38.0314C61.1944 36.9767 61.2061 35.922 61.2256 34.8673C61.2295 34.6134 61.2334 34.3595 61.2334 34.1017C63.4482 34.1134 64.7998 35.4063 64.917 37.3243ZM18.921 42.5782C16.6437 42.3322 15.0616 40.1407 15.2374 37.3243C15.3546 35.4063 16.7062 34.1134 18.921 34.1016C18.921 34.3556 18.9249 34.6095 18.9288 34.8673C18.9445 35.922 18.9601 36.9767 18.9952 38.0314C19.0304 39.1212 19.089 40.2072 19.1867 41.2931C19.2257 41.7306 19.2726 42.1681 19.3312 42.6056C19.1945 42.5978 19.0577 42.59 18.921 42.5782ZM23.9444 48.793C21.9366 44.3047 21.8936 39.5742 21.8194 34.82C21.8155 34.574 21.8116 34.3279 21.8116 34.0818C21.9874 32.5584 22.5616 31.1443 24.003 29.7888C25.6163 28.2693 26.171 25.6286 27.1514 23.5935C30.9287 26.863 35.3389 28.738 40.0814 29.7849C42.2572 30.2653 44.4994 30.57 46.7884 30.7575C49.7103 30.9958 55.1634 31.3083 58.3434 30.9724C58.3434 32.3044 58.359 33.5622 58.3395 34.8162C58.2653 39.5662 58.2184 44.3006 56.2145 48.7892C53.359 55.1798 46.5973 59.9492 40.0815 60.1012C33.562 59.9527 26.8004 55.184 23.9444 48.793ZM40.0774 76.211C33.593 76.2423 27.7374 72.3399 25.2684 66.3477C27.0653 65.8477 28.8778 65.461 30.7176 65.168V60.2657C32.0535 61.0353 33.4676 61.668 34.9364 62.1329C35.7567 62.3908 36.5926 62.5978 37.4403 62.7423C38.288 62.8868 39.1473 62.9767 40.0067 62.9962H40.0731H40.1395C40.9989 62.9767 41.8583 62.8908 42.7059 62.7423C43.5536 62.5978 44.3895 62.3908 45.2098 62.1329C46.6786 61.6681 48.0926 61.0352 49.4286 60.2657V65.168C51.2684 65.461 53.0809 65.8477 54.8778 66.3477C52.4169 72.3399 46.562 76.2422 40.0774 76.211Z" fill="white"/>
<path d="M47.983 49.6373C48.7604 48.0865 46.6588 46.7232 45.5611 48.0631C42.983 52.0358 37.1705 52.0358 34.5921 48.0631C33.4905 46.7233 31.3929 48.0866 32.1702 49.6373C35.885 55.3639 44.269 55.3639 47.983 49.6373Z" fill="white"/>
<path d="M32.991 38.8134C33.8699 40.5243 36.3816 39.3251 35.5965 37.5673C33.6082 33.415 27.6785 33.454 25.7488 37.6337C25.0144 39.4149 27.491 40.5556 28.3699 38.8446C29.2801 36.8837 32.0574 36.8641 32.991 38.8134Z" fill="white"/>
<path d="M47.163 38.8133C48.0966 36.8641 50.8739 36.8836 51.7802 38.8446C52.6591 40.5555 55.1357 39.411 54.4052 37.6337C52.4716 33.454 46.5458 33.411 44.5575 37.5673C43.7724 39.3251 46.2841 40.5281 47.163 38.8133Z" fill="white"/>
<path d="M62.628 81.5203C62.6593 83.2039 62.6905 84.8915 62.7179 86.5751C62.8233 88.497 65.5734 88.4462 65.6085 86.5243C65.5772 84.8368 65.546 83.1532 65.5147 81.4696C65.1046 79.9813 62.9835 80.0204 62.628 81.5203Z" fill="white"/>
<path d="M14.639 81.4693C14.6078 83.1529 14.5765 84.8404 14.5453 86.524C14.5804 88.4498 17.3305 88.4967 17.4359 86.5748C17.4671 84.8912 17.4984 83.2037 17.5296 81.5201C17.1703 80.0201 15.0491 79.981 14.639 81.4693Z" fill="white"/>
</svg>
