<svg width="78" height="86" viewBox="0 0 78 86" fill="none" xmlns="http://www.w3.org/2000/svg">
<path d="M55.9 9.08513C53.7 0.185128 37.9 -0.614872 31 0.285128C28.2 0.685128 26.2 1.78513 24.9 3.48513C24.3 4.38513 24 5.18513 23.9 5.98513C22.2 6.48513 21.1 7.48513 20.6 8.28513C17.8 11.3851 19.7 17.0851 22.2 21.7851C21 22.8851 20.2 24.5851 20.2 26.2851V28.9851C20.2 31.4851 21.7 33.5851 23.8 34.4851C23.9 37.8851 25.1 40.8851 27 43.3851V53.9851C27 55.2851 27 56.0851 23.6 56.9851H23.5C21.1 57.6851 0 64.2851 0 74.8851V83.9851C0 85.0851 0.9 85.9851 2 85.9851H37H38.8H75.8C76.9 85.9851 77.8 85.0851 77.8 83.9851V74.8851C77.8 64.2851 56.7 57.6851 54.3 56.9851H54.2C50.8 56.1851 50.8 55.2851 50.8 53.9851V44.6851C53.3 41.9851 54.9 38.4851 55 34.5851C57.2 33.6851 58.6 31.4851 58.6 29.0851V26.3851C58.6 23.9851 57.2 21.8851 55.2 20.8851C56.4 15.9851 56.6 11.9851 55.9 9.08513ZM53.2 60.7851C58.6 62.3851 73.8 68.3851 73.8 74.8851V81.9851H38.8H37H4V74.8851C4 69.1851 16.6 63.1851 24.6 60.7851C27.9 59.9851 31 58.5851 31 53.9851V47.1851C33.4 48.6851 36.1 49.5851 39.1 49.5851H39.7C42.3 49.5851 44.7 48.9851 46.8 47.7851V53.9851C46.8 58.5851 49.9 59.9851 53.2 60.7851ZM54.7 29.0851C54.7 30.0851 53.9 30.9851 52.8 31.1851C51.8 31.2851 51 32.1851 51 33.1851V34.2851C51 40.4851 45.9 45.5851 39.7 45.5851H39.1C32.9 45.5851 27.8 40.4851 27.8 34.2851V33.1851C27.8 32.1851 27 31.2851 26 31.1851C24.9 31.0851 24.1 30.1851 24.1 29.0851V26.3851C24.1 25.4851 24.7 24.7851 25.5 24.4851C26.1 24.2851 26.5 23.8851 26.7 23.2851C26.9 22.6851 26.8 22.0851 26.5 21.5851C23.1 15.6851 22.5 11.9851 23.5 11.0851C23.7 10.8851 23.7 10.7851 23.8 10.5851C23.8 10.4851 24.3 9.78513 25.7 9.78513C26.3 9.78513 26.8 9.48513 27.2 9.08513C27.6 8.68513 27.7 7.98513 27.7 7.48513C27.7 7.48513 27.6 6.58513 28.1 5.88513C28.7 5.08513 29.8 4.58513 31.4 4.38513C32.6 4.18513 34.1 4.08513 35.7 4.08513C38.2 4.08513 41.1 4.28513 43.7 4.88513C46.4 5.48513 51 6.98513 51.8 10.0851C52.5 12.6851 52.1 16.7851 50.7 21.7851C50.5 22.3851 50.6 22.9851 51 23.4851C51.4 23.9851 51.9 24.2851 52.5 24.2851C53.6 24.3851 54.5 25.2851 54.5 26.3851V29.0851H54.7Z" fill="white"/>
</svg>
